<?xml version="1.0" encoding="UTF-8" standalone="no"?>
<svg
   width="64pt"
   height="64pt"
   viewBox="0 0 22.577778 22.577778"
   version="1.1"
   id="svg831"
   inkscape:version="1.1.2 (1:1.1+202202050950+0a00cf5339)"
   sodipodi:docname="6 - Online Store.svg"
   inkscape:export-filename="/media/taufikramadhan/Data/Tr Design Studio/Project Design/TR Creative Design/Icon Design/Project Hiring/Icon Icons/019 - Commerce And Shopping/5 - Send/6 - Online Store.png"
   inkscape:export-xdpi="576"
   inkscape:export-ydpi="576"
   xmlns:inkscape="http://www.inkscape.org/namespaces/inkscape"
   xmlns:sodipodi="http://sodipodi.sourceforge.net/DTD/sodipodi-0.dtd"
   xmlns="http://www.w3.org/2000/svg"
   xmlns:svg="http://www.w3.org/2000/svg"
   xmlns:rdf="http://www.w3.org/1999/02/22-rdf-syntax-ns#"
   xmlns:cc="http://creativecommons.org/ns#"
   xmlns:dc="http://purl.org/dc/elements/1.1/">
  <defs
     id="defs825">
    <pattern
       id="EMFhbasepattern"
       patternUnits="userSpaceOnUse"
       width="6"
       height="6"
       x="0"
       y="0" />
    <pattern
       id="EMFhbasepattern-9"
       patternUnits="userSpaceOnUse"
       width="6"
       height="6"
       x="0"
       y="0" />
    <pattern
       id="EMFhbasepattern-0"
       patternUnits="userSpaceOnUse"
       width="6"
       height="6"
       x="0"
       y="0" />
    <pattern
       id="EMFhbasepattern-7"
       patternUnits="userSpaceOnUse"
       width="6"
       height="6"
       x="0"
       y="0" />
    <pattern
       id="EMFhbasepattern-2"
       patternUnits="userSpaceOnUse"
       width="6"
       height="6"
       x="0"
       y="0" />
    <pattern
       id="EMFhbasepattern-98"
       patternUnits="userSpaceOnUse"
       width="6"
       height="6"
       x="0"
       y="0" />
    <pattern
       id="EMFhbasepattern-6"
       patternUnits="userSpaceOnUse"
       width="6"
       height="6"
       x="0"
       y="0" />
    <pattern
       id="EMFhbasepattern-01"
       patternUnits="userSpaceOnUse"
       width="6"
       height="6"
       x="0"
       y="0" />
    <pattern
       id="EMFhbasepattern-07"
       patternUnits="userSpaceOnUse"
       width="6"
       height="6"
       x="0"
       y="0" />
    <pattern
       id="EMFhbasepattern-8"
       patternUnits="userSpaceOnUse"
       width="6"
       height="6"
       x="0"
       y="0" />
    <pattern
       id="EMFhbasepattern-4"
       patternUnits="userSpaceOnUse"
       width="6"
       height="6"
       x="0"
       y="0" />
    <pattern
       id="EMFhbasepattern-40"
       patternUnits="userSpaceOnUse"
       width="6"
       height="6"
       x="0"
       y="0" />
    <pattern
       id="EMFhbasepattern-08"
       patternUnits="userSpaceOnUse"
       width="6"
       height="6"
       x="0"
       y="0" />
    <pattern
       id="EMFhbasepattern-04"
       patternUnits="userSpaceOnUse"
       width="6"
       height="6"
       x="0"
       y="0" />
    <pattern
       id="EMFhbasepattern-014"
       patternUnits="userSpaceOnUse"
       width="6"
       height="6"
       x="0"
       y="0" />
    <pattern
       id="EMFhbasepattern-27"
       patternUnits="userSpaceOnUse"
       width="6"
       height="6"
       x="0"
       y="0" />
    <pattern
       id="EMFhbasepattern-09"
       patternUnits="userSpaceOnUse"
       width="6"
       height="6"
       x="0"
       y="0" />
    <pattern
       id="EMFhbasepattern-5"
       patternUnits="userSpaceOnUse"
       width="6"
       height="6"
       x="0"
       y="0" />
    <pattern
       id="EMFhbasepattern-018"
       patternUnits="userSpaceOnUse"
       width="6"
       height="6"
       x="0"
       y="0" />
  </defs>
  <sodipodi:namedview
     id="base"
     pagecolor="#ffffff"
     bordercolor="#666666"
     borderopacity="1.0"
     inkscape:pageopacity="0.0"
     inkscape:pageshadow="2"
     inkscape:zoom="4.4249417"
     inkscape:cx="29.039931"
     inkscape:cy="53.560028"
     inkscape:document-units="pt"
     inkscape:current-layer="layer1"
     showgrid="false"
     units="pt"
     inkscape:window-width="1366"
     inkscape:window-height="705"
     inkscape:window-x="0"
     inkscape:window-y="31"
     inkscape:window-maximized="1"
     inkscape:pagecheckerboard="true"
     inkscape:showpageshadow="false"
     inkscape:object-paths="true"
     inkscape:snap-intersection-paths="true"
     inkscape:snap-smooth-nodes="true"
     inkscape:snap-midpoints="true"
     showguides="true"
     inkscape:snap-bbox="true"
     inkscape:bbox-nodes="true"
     inkscape:snap-nodes="false"
     inkscape:snap-global="true"
     inkscape:document-rotation="0">
    <inkscape:grid
       type="xygrid"
       id="grid1378" />
    <sodipodi:guide
       position="0.97013831,21.607643"
       orientation="78.000048,0"
       id="guide1380"
       inkscape:locked="false" />
    <sodipodi:guide
       position="0.97013831,0.97013129"
       orientation="0,78.000005"
       id="guide1382"
       inkscape:locked="false" />
    <sodipodi:guide
       position="21.607639,0.97013129"
       orientation="-78.000048,0"
       id="guide1384"
       inkscape:locked="false" />
    <sodipodi:guide
       position="21.607639,21.607643"
       orientation="0,-78.000005"
       id="guide1386"
       inkscape:locked="false" />
  </sodipodi:namedview>
  <metadata
     id="metadata828">
    <rdf:RDF>
      <cc:Work
         rdf:about="">
        <dc:format>image/svg+xml</dc:format>
        <dc:type
           rdf:resource="http://purl.org/dc/dcmitype/StillImage" />
      </cc:Work>
    </rdf:RDF>
  </metadata>
  <g
     inkscape:label="Icon"
     inkscape:groupmode="layer"
     id="layer1"
     transform="translate(0,-274.42223)">
    <g
       id="g125204"
       style="display:inline;stroke-width:0.794878"
       transform="matrix(1.2580549,0,0,1.2580549,-114.4016,-38.905128)">
      <path
         style="color:#000000;fill:#feae72;stroke-width:0.794878;stroke-linecap:round;stroke-linejoin:round;stroke-miterlimit:1.5;-inkscape-stroke:none"
         d="m 93.837891,260.67578 c -0.333269,0 -0.609375,0.27611 -0.609375,0.60938 v 1.42773 c 0,0.33327 0.276115,0.60938 0.609375,0.60938 h 1.425781 c 0.333259,0 0.611328,-0.27611 0.611328,-0.60938 v -1.42773 c 0,-0.33327 -0.27806,-0.60938 -0.611328,-0.60938 z"
         id="path908322" />
      <path
         id="path35776"
         style="color:#000000;fill:#fd913c;fill-opacity:1;stroke-width:0.794878;stroke-linecap:round;stroke-linejoin:round;stroke-miterlimit:1.5;-inkscape-stroke:none"
         d="m 93.837686,260.6756 c -0.306084,0 -0.563547,0.23298 -0.603581,0.52916 h 0.971 c 0.333269,0 0.611333,0.27651 0.611333,0.60978 v 1.42731 c 0,0.0272 -0.0016,0.0543 -0.0052,0.0806 h 0.452168 c 0.333258,0 0.611333,-0.27651 0.611333,-0.60978 v -1.4273 c 0,-0.33327 -0.278064,-0.60978 -0.611333,-0.60978 z" />
      <path
         id="path669422"
         style="color:#000000;fill:#66342d;stroke-width:3.00426;stroke-linecap:round;stroke-linejoin:round;stroke-miterlimit:1.5;-inkscape-stroke:none"
         d="m 356.36133,-73.289062 v 2.001953 a 1.0000006,1.0000006 0 0 0 0.99609,1.003906 1.0000006,1.0000006 0 0 0 1.00391,-1.003906 v -2.001953 z"
         transform="matrix(0.26458334,0,0,0.26458334,0,280.06666)" />
      <path
         style="color:#000000;fill:#feae72;stroke-width:0.794878;stroke-linecap:round;stroke-linejoin:round;stroke-miterlimit:1.5;-inkscape-stroke:none"
         d="m 93.044922,262.79297 c -0.333267,0 -0.609375,0.2761 -0.609375,0.60937 v 2.22071 c 0,0.33327 0.276108,0.60937 0.609375,0.60937 h 2.564453 A 0.26460996,0.26460996 0 0 0 95.875,265.96875 v -1.32422 -1.24219 c 0,-0.33327 -0.278058,-0.60937 -0.611328,-0.60937 z"
         id="path908316" />
      <path
         id="path26719"
         style="color:#000000;fill:#fd913c;fill-opacity:1;stroke-width:0.794878;stroke-linecap:round;stroke-linejoin:round;stroke-miterlimit:1.5;-inkscape-stroke:none"
         d="m 93.04497,262.79278 c -0.306091,0 -0.564076,0.23298 -0.604099,0.52917 h 1.764234 c 0.333269,0 0.611333,0.27651 0.611333,0.60978 v 1.24178 1.05885 h 0.792715 a 0.26460996,0.26460996 0 0 0 0.265618,-0.26355 v -1.32446 -1.24179 c 0,-0.33327 -0.278064,-0.60978 -0.611333,-0.60978 z" />
      <path
         id="path669418"
         style="color:#000000;fill:#66342d;stroke-width:3.00426;stroke-linecap:round;stroke-linejoin:round;stroke-miterlimit:1.5;-inkscape-stroke:none"
         d="m 354.86133,-65.287109 v 2.998047 a 1.0000006,1.0000006 0 0 0 0.99805,1.003906 1.0000006,1.0000006 0 0 0 1.0039,-1.003906 v -2.998047 z"
         transform="matrix(0.26458334,0,0,0.26458334,0,280.06666)" />
      <path
         style="color:#000000;clip-rule:evenodd;fill:#a8c2e1;fill-rule:evenodd;stroke-width:0.794878;stroke-linecap:round;stroke-linejoin:round;stroke-miterlimit:1.5;-inkscape-stroke:none"
         d="m 95.609375,250.8125 a 0.26460996,0.26460996 0 0 0 -0.263672,0.26367 v 13.9082 c 0,0.68597 0.562081,1.24805 1.248047,1.24805 h 8.54102 a 0.26460996,0.26460996 0 0 0 0.26367,-0.26367 v -14.89258 a 0.26460996,0.26460996 0 0 0 -0.26367,-0.26367 z"
         id="path908336" />
      <path
         id="path102412"
         style="color:#000000;clip-rule:evenodd;fill:#91a9d9;fill-opacity:1;fill-rule:evenodd;stroke-width:0.794878;stroke-linecap:round;stroke-linejoin:round;stroke-miterlimit:1.5;-inkscape-stroke:none"
         d="m 105.39822,265.96881 v -13.30513 h -0.52917 v 13.30513 z"
         sodipodi:nodetypes="ccccc" />
      <path
         id="path91806"
         style="color:#000000;fill:#91a9d9;fill-opacity:1;stroke-width:3.00426;stroke-linecap:round;stroke-linejoin:round;stroke-miterlimit:1.5;-inkscape-stroke:none"
         d="m 360.36133,-94.283203 v 8.666015 c 0.66567,-0.204304 1.25705,-0.583049 1.71875,-1.083984 0.71227,0.819137 1.76125,1.339844 2.92383,1.339844 1.13125,0 2.15468,-0.494125 2.86523,-1.275391 0.71055,0.781266 1.73202,1.275391 2.86328,1.275391 1.13675,0 2.16406,-0.499267 2.875,-1.28711 0.71101,0.788901 1.7393,1.28711 2.87696,1.28711 1.13421,0 2.16031,-0.494478 2.87109,-1.279297 0.71104,0.79011 1.74028,1.289063 2.87891,1.289063 1.13673,0 2.16403,-0.497352 2.875,-1.285157 0.71092,0.787805 1.73826,1.285157 2.875,1.285157 1.13665,0 2.16407,-0.497428 2.875,-1.285157 0.71096,0.788296 1.73785,1.285157 2.875,1.285157 1.13661,0 2.16407,-0.497428 2.875,-1.285157 0.46529,0.515901 1.06724,0.906564 1.74609,1.115235 v -8.761719 h -0.74414 -5.75195 -5.75 -7.75 v 0.01172 h -3.75 -7.75196 v 0.04297 h -4.42969 a 1.0001006,1.0001006 0 0 0 -0.3164,-0.05469 z"
         transform="matrix(0.26458334,0,0,0.26458334,0,280.06666)" />
      <path
         id="path908342"
         style="color:#000000;clip-rule:evenodd;fill:#3a4d5c;fill-rule:evenodd;stroke-width:3.00426;stroke-linecap:round;stroke-linejoin:round;stroke-miterlimit:1.5;-inkscape-stroke:none"
         d="m 360.36133,-59.285156 v 2.28125 c 0,2.592642 2.12417,4.716797 4.71679,4.716797 h 32.28126 a 1.0001006,1.0001006 0 0 0 0.99609,-0.996094 v -6.001953 z"
         transform="matrix(0.26458334,0,0,0.26458334,0,280.06666)" />
      <path
         style="color:#000000;clip-rule:evenodd;fill:#2276bc;fill-rule:evenodd;stroke-width:0.794878;stroke-linecap:round;stroke-linejoin:round;stroke-miterlimit:1.5;-inkscape-stroke:none"
         d="m 97.806641,257.82227 a 0.26460945,0.26460945 0 0 0 -0.142579,0.041 l -1.085937,0.69141 a 0.26460945,0.26460945 0 0 0 -0.09375,0.34179 l 0.425781,0.8418 a 0.26460945,0.26460945 0 0 0 0.355469,0.11524 l 0.277344,-0.14063 v 1.28516 a 0.26460945,0.26460945 0 0 0 0.263672,0.26367 h 1.898437 a 0.26460945,0.26460945 0 0 0 0.265625,-0.26367 v -1.28516 l 0.277347,0.14063 a 0.26460945,0.26460945 0 0 0 0.35547,-0.11524 l 0.42578,-0.8418 a 0.26460945,0.26460945 0 0 0 -0.0937,-0.34179 l -1.087894,-0.69141 a 0.26460945,0.26460945 0 0 0 -0.142578,-0.041 z"
         id="path908348" />
      <path
         style="color:#000000;fill:#6788cb;stroke-width:0.794878;stroke-linecap:round;stroke-linejoin:round;stroke-miterlimit:1.5;-inkscape-stroke:none"
         d="m 101.69531,257.50195 a 0.2645835,0.2645835 0 0 0 -0.26562,0.26367 0.2645835,0.2645835 0 0 0 0.26562,0.26563 h 2.11719 a 0.2645835,0.2645835 0 0 0 0.26367,-0.26563 0.2645835,0.2645835 0 0 0 -0.26367,-0.26367 z"
         id="path152502" />
      <path
         style="color:#000000;fill:#6788cb;stroke-width:0.794878;stroke-linecap:round;stroke-linejoin:round;stroke-miterlimit:1.5;-inkscape-stroke:none"
         d="m 101.69531,258.56055 a 0.2645835,0.2645835 0 0 0 -0.26562,0.26367 0.2645835,0.2645835 0 0 0 0.26562,0.26367 h 0.26367 a 0.2645835,0.2645835 0 0 0 0.26563,-0.26367 0.2645835,0.2645835 0 0 0 -0.26563,-0.26367 z"
         id="path152811" />
      <path
         style="color:#000000;fill:#6788cb;stroke-width:0.794878;stroke-linecap:round;stroke-linejoin:round;stroke-miterlimit:1.5;-inkscape-stroke:none"
         d="m 101.69531,259.88281 a 0.2645835,0.2645835 0 0 0 -0.26562,0.26367 0.2645835,0.2645835 0 0 0 0.26562,0.26563 h 2.38086 a 0.2645835,0.2645835 0 0 0 0.26563,-0.26563 0.2645835,0.2645835 0 0 0 -0.26563,-0.26367 z"
         id="path152926" />
      <path
         style="color:#000000;fill:#6788cb;stroke-width:0.794878;stroke-linecap:round;stroke-linejoin:round;stroke-miterlimit:1.5;-inkscape-stroke:none"
         d="m 101.69531,260.94141 a 0.2645835,0.2645835 0 0 0 -0.26562,0.26367 0.2645835,0.2645835 0 0 0 0.26562,0.26562 h 1.32227 a 0.2645835,0.2645835 0 0 0 0.26562,-0.26562 0.2645835,0.2645835 0 0 0 -0.26562,-0.26367 z"
         id="path154037" />
      <path
         style="color:#000000;fill:#ececec;stroke-width:0.794878;stroke-linecap:round;stroke-linejoin:round;stroke-miterlimit:1.5;-inkscape-stroke:none"
         d="m 96.931641,262.26367 c -0.288589,0 -0.527344,0.24071 -0.527344,0.5293 v 0.5293 c 0,0.28858 0.238767,0.52929 0.527344,0.52929 h 1.58789 c 0.288577,0 0.529297,-0.24071 0.529297,-0.52929 v -0.5293 c 0,-0.28859 -0.240708,-0.5293 -0.529297,-0.5293 z"
         id="path908370" />
      <path
         style="color:#000000;fill:#ececec;stroke-width:0.794878;stroke-linecap:round;stroke-linejoin:round;stroke-miterlimit:1.5;-inkscape-stroke:none"
         d="m 100.37305,262.26367 c -0.28859,0 -0.5293,0.24071 -0.5293,0.5293 v 0.5293 c 0,0.28858 0.24072,0.52929 0.5293,0.52929 h 1.58593 c 0.28858,0 0.5293,-0.24071 0.5293,-0.52929 v -0.5293 c 0,-0.28859 -0.24071,-0.5293 -0.5293,-0.5293 z"
         id="path908376" />
      <path
         style="color:#000000;clip-rule:evenodd;fill:#3a4d5c;fill-rule:evenodd;stroke-width:0.794878;stroke-linecap:round;stroke-linejoin:round;stroke-miterlimit:1.5;-inkscape-stroke:none"
         d="m 96.59375,249.82812 c -0.685963,0 -1.248047,0.56209 -1.248047,1.24805 v 1.13281 a 0.26460996,0.26460996 0 0 0 0.263672,0.26563 h 9.525395 a 0.26460996,0.26460996 0 0 0 0.26367,-0.26563 v -1.13281 c 0,-0.68588 -0.55994,-1.24805 -1.2461,-1.24805 z"
         id="path908388" />
      <path
         id="path42634"
         style="color:#000000;clip-rule:evenodd;fill:#143441;fill-opacity:1;fill-rule:evenodd;stroke-width:0.794878;stroke-linecap:round;stroke-linejoin:round;stroke-miterlimit:1.5;-inkscape-stroke:none"
         d="m 96.593588,249.82819 c -0.418936,0 -0.791318,0.20969 -1.018024,0.52917 h 8.047566 c 0.68616,0 1.24592,0.56211 1.24592,1.24799 v 0.86919 h 0.26562 a 0.26460996,0.26460996 0 0 0 0.26355,-0.26561 v -1.13275 c 0,-0.68588 -0.55976,-1.24799 -1.24592,-1.24799 z" />
      <path
         style="color:#000000;clip-rule:evenodd;fill:#ececec;fill-rule:evenodd;stroke-width:0.794878;stroke-linecap:round;stroke-linejoin:round;stroke-miterlimit:1.5;-inkscape-stroke:none"
         d="m 95.345703,252.0918 -1.294922,2.64453 c -0.08814,0.17653 0.04097,0.38396 0.238281,0.38281 4.054604,-0.0353 8.110848,-0.0161 12.167968,0 0.19646,-3.1e-4 0.32409,-0.20704 0.23633,-0.38281 l -1.29492,-2.64453 v -0.14649 H 95.345703 Z"
         id="path908394"
         sodipodi:nodetypes="ccccccccc" />
      <path
         style="color:#000000;fill:#2276bc;stroke-width:0.794878;stroke-linecap:round;stroke-linejoin:round;stroke-miterlimit:1.5;-inkscape-stroke:none"
         d="m 94.287109,254.5918 a 0.26460996,0.26460996 0 0 0 -0.265625,0.26367 v 1.04883 c 0,0.56341 0.46198,1.02539 1.025391,1.02539 0.56342,0 1.025391,-0.46198 1.025391,-1.02539 v -1.04883 a 0.26460996,0.26460996 0 0 0 -0.263672,-0.26367 z"
         id="path908400" />
      <path
         id="path71514"
         style="color:#000000;fill:#1d5c87;fill-opacity:1;stroke-width:3.00426;stroke-linecap:round;stroke-linejoin:round;stroke-miterlimit:1.5;-inkscape-stroke:none"
         d="m 356.36133,-96.283203 a 1.0001006,1.0001006 0 0 0 -1.00391,0.996094 v 1.003906 h 1.97852 c 0.97871,0 1.77148,0.792776 1.77148,1.771484 v 5.0625 c 0.0415,0.0013 0.0832,0.002 0.125,0.002 2.09489,0 3.81958,-1.689236 3.875,-3.771484 0,-0.0013 0,-0.0026 0,-0.0039 4e-5,-0.0013 -3e-5,-0.0026 0,-0.0039 v -0.0957 -3.964843 a 1.0001006,1.0001006 0 0 0 -0.99609,-0.996094 z"
         transform="matrix(0.26458334,0,0,0.26458334,0,280.06666)" />
      <path
         style="color:#000000;fill:#ececec;stroke-width:0.794878;stroke-linecap:round;stroke-linejoin:round;stroke-miterlimit:1.5;-inkscape-stroke:none"
         d="m 95.548446,254.60644 v 1.32032 c 0,0.56341 0.461971,1.02539 1.02539,1.02539 0.563413,0 1.025391,-0.46198 1.025391,-1.02539 v -1.32032 z"
         id="path908406"
         sodipodi:nodetypes="cssscc" />
      <path
         id="path85816"
         style="color:#000000;fill:#cccccc;fill-opacity:1;stroke-width:0.794878;stroke-linecap:round;stroke-linejoin:round;stroke-miterlimit:1.5;-inkscape-stroke:none"
         d="m 96.541146,256.95491 c 0.56341,0 1.05833,-0.46185 1.05833,-1.02526 v -1.3379 l -2.05103,-2e-5 v 0.52917 h 0.52382 c 0.25895,0 0.46888,0.20993 0.46888,0.46888 z"
         sodipodi:nodetypes="cscccscc" />
      <path
         style="color:#000000;fill:#2276bc;stroke-width:0.794878;stroke-linecap:round;stroke-linejoin:round;stroke-miterlimit:1.5;-inkscape-stroke:none"
         d="m 97.064453,254.59473 v 1.33203 c 0,0.56341 0.461978,1.02539 1.025391,1.02539 0.563419,0 1.02539,-0.46198 1.02539,-1.02539 v -1.33203 z"
         id="path908412"
         sodipodi:nodetypes="cssscc" />
      <path
         id="path71510"
         style="color:#000000;fill:#1d5c87;fill-opacity:1;stroke-width:0.794878;stroke-linecap:round;stroke-linejoin:round;stroke-miterlimit:1.5;-inkscape-stroke:none"
         d="m 98.056904,256.95491 c 0.56341,0 1.05833,-0.46185 1.05833,-1.02526 v -1.3379 l -2.05103,-2e-5 v 0.52917 h 0.52382 c 0.25895,0 0.46888,0.20993 0.46888,0.46888 z"
         sodipodi:nodetypes="cscccscc" />
      <path
         style="color:#000000;fill:#ececec;stroke-width:0.794878;stroke-linecap:round;stroke-linejoin:round;stroke-miterlimit:1.5;-inkscape-stroke:none"
         d="m 98.585937,254.59466 v 1.33217 c 0,0.56341 0.461971,1.02539 1.025391,1.02539 0.563412,0 1.025392,-0.46198 1.025392,-1.02539 v -1.33203 z"
         id="path908418"
         sodipodi:nodetypes="cssscc" />
      <path
         id="path71508"
         style="color:#000000;fill:#cccccc;fill-opacity:1;stroke-width:0.794878;stroke-linecap:round;stroke-linejoin:round;stroke-miterlimit:1.5;-inkscape-stroke:none"
         d="m 99.57839,256.95491 c 0.56341,0 1.05833,-0.46185 1.05833,-1.02526 v -1.3379 l -2.05103,-2e-5 v 0.52917 h 0.52382 c 0.25895,0 0.46888,0.20993 0.46888,0.46888 z"
         sodipodi:nodetypes="cscccscc" />
      <path
         style="color:#000000;fill:#2276bc;stroke-width:0.794878;stroke-linecap:round;stroke-linejoin:round;stroke-miterlimit:1.5;-inkscape-stroke:none"
         d="m 100.10742,254.5918 v 1.33789 c 0,0.56341 0.46197,1.02539 1.02539,1.02539 0.56342,0 1.02539,-0.46198 1.02539,-1.02539 v -1.33789 z"
         id="path908442"
         sodipodi:nodetypes="cssscc" />
      <path
         id="path149571"
         style="color:#000000;fill:#cccccc;stroke-width:3.00426;stroke-linecap:round;stroke-linejoin:round;stroke-miterlimit:1.5;-inkscape-stroke:none"
         d="m 358.24219,-101.28711 -1,2.000001 h 10.11719 a 1.0000006,1.0000006 0 0 0 0.99609,-0.996091 1.0000006,1.0000006 0 0 0 -0.99609,-1.00391 z"
         transform="matrix(0.26458334,0,0,0.26458334,0,280.06666)" />
      <path
         id="path150373"
         style="color:#000000;fill:#cccccc;stroke-width:3.00426;stroke-linecap:round;stroke-linejoin:round;stroke-miterlimit:1.5;-inkscape-stroke:none"
         d="m 376.35742,-101.28711 a 1.0000006,1.0000006 0 0 0 -0.99609,1.00391 1.0000006,1.0000006 0 0 0 0.99609,0.996091 h 25.11719 l -0.99805,-2.000001 z"
         transform="matrix(0.26458334,0,0,0.26458334,0,280.06666)" />
      <path
         id="path114130"
         style="color:#000000;clip-rule:evenodd;fill:#143441;fill-opacity:1;fill-rule:evenodd;stroke-width:3.00426;stroke-linecap:round;stroke-linejoin:round;stroke-miterlimit:1.5;-inkscape-stroke:none"
         d="m 360.36133,-59.285156 v 2 h 23.10457 a 3.548364,3.548364 46.900343 0 1 3.54056,3.78357 l -0.0807,1.214477 h 10.4336 c 0.54921,-0.0022 0.99389,-0.44688 0.99609,-0.996094 v -6.001953 z"
         transform="matrix(0.26458334,0,0,0.26458334,0,280.06666)"
         sodipodi:nodetypes="cccccccc" />
      <path
         style="color:#000000;clip-rule:evenodd;fill:#ff7247;fill-rule:evenodd;stroke-width:0.794878;stroke-linecap:round;stroke-linejoin:round;stroke-miterlimit:1.5;-inkscape-stroke:none"
         d="m 106.85352,261.73437 c 0.13955,2.2e-4 0.25494,0.10878 0.26367,0.24805 l 0.26367,3.96875 c 0.01,0.15222 -0.11115,0.28101 -0.26367,0.28125 -1.32227,0 -2.64453,0 -3.9668,0 -0.15252,-2.4e-4 -0.27367,-0.12903 -0.26367,-0.28125 l 0.26367,-3.96875 c 0.009,-0.13927 0.12412,-0.24783 0.26367,-0.24805 1.14649,0 2.29297,0 3.43946,0 z"
         id="path17769"
         sodipodi:nodetypes="ccccccccc" />
      <path
         style="color:#000000;clip-rule:evenodd;fill:#3a4d5c;fill-rule:evenodd;stroke-width:0.794878;stroke-linecap:round;stroke-linejoin:round;stroke-miterlimit:1.5;-inkscape-stroke:none"
         d="m 105.13477,260.66992 c -0.58759,0 -1.0586,0.49754 -1.0586,1.0918 V 262 a 0.2645835,0.2645835 0 0 0 0.26563,0.26367 A 0.2645835,0.2645835 0 0 0 104.60547,262 v -0.23828 c 0,-0.31962 0.2406,-0.5625 0.5293,-0.5625 0.28834,0 0.52929,0.24288 0.52929,0.5625 V 262 a 0.2645835,0.2645835 0 0 0 0.26367,0.26367 A 0.2645835,0.2645835 0 0 0 106.19336,262 v -0.23828 c 0,-0.59426 -0.47118,-1.0918 -1.05859,-1.0918 z"
         id="path137873" />
      <path
         style="color:#000000;clip-rule:evenodd;fill:#ececec;fill-rule:evenodd;stroke-width:0.794878;stroke-linecap:round;stroke-linejoin:round;stroke-miterlimit:1.5;-inkscape-stroke:none"
         d="m 104.60547,262.79297 a 0.2645835,0.2645835 0 0 0 -0.26367,0.26367 0.2645835,0.2645835 0 0 0 0.26367,0.26563 h 1.05859 a 0.2645835,0.2645835 0 0 0 0.26367,-0.26563 0.2645835,0.2645835 0 0 0 -0.26367,-0.26367 z"
         id="path137875" />
      <path
         id="path71506"
         style="color:#000000;fill:#1d5c87;fill-opacity:1;stroke-width:0.794878;stroke-linecap:round;stroke-linejoin:round;stroke-miterlimit:1.5;-inkscape-stroke:none"
         d="m 101.09987,256.95491 c 0.56341,0 1.05833,-0.46185 1.05833,-1.02526 v -1.3379 l -2.05103,-2e-5 v 0.52917 h 0.52382 c 0.25895,0 0.46888,0.20993 0.46888,0.46888 z"
         sodipodi:nodetypes="cscccscc" />
      <path
         style="color:#000000;fill:#ececec;stroke-width:0.794878;stroke-linecap:round;stroke-linejoin:round;stroke-miterlimit:1.5;-inkscape-stroke:none"
         d="m 101.62891,254.5918 v 1.33789 c 0,0.56341 0.46197,1.02539 1.02539,1.02539 0.56342,0 1.02539,-0.46198 1.02539,-1.02539 v -1.33789 z"
         id="path908436"
         sodipodi:nodetypes="cssscc" />
      <path
         id="path71504"
         style="color:#000000;fill:#cccccc;fill-opacity:1;stroke-width:0.794878;stroke-linecap:round;stroke-linejoin:round;stroke-miterlimit:1.5;-inkscape-stroke:none"
         d="m 102.62708,256.95491 c 0.56341,0 1.05833,-0.46185 1.05833,-1.02526 v -1.3379 l -2.05103,-2e-5 v 0.52917 h 0.52382 c 0.25895,0 0.46888,0.20993 0.46888,0.46888 z"
         sodipodi:nodetypes="cscccscc" />
      <path
         style="color:#000000;fill:#2276bc;stroke-width:0.794878;stroke-linecap:round;stroke-linejoin:round;stroke-miterlimit:1.5;-inkscape-stroke:none"
         d="m 103.15039,254.5918 v 1.33789 c 0,0.56341 0.46197,1.02539 1.02539,1.02539 0.56341,0 1.02539,-0.46198 1.02539,-1.02539 v -1.33789 z"
         id="path908430"
         sodipodi:nodetypes="cssscc" />
      <path
         id="path48019"
         style="color:#000000;clip-rule:evenodd;fill:#adadad;fill-opacity:1;fill-rule:evenodd;stroke-width:0.794878;stroke-linecap:round;stroke-linejoin:round;stroke-miterlimit:1.5;-inkscape-stroke:none"
         d="m 95.345603,251.94538 v 0.14624 l -0.18759,0.38292 h 8.691917 c 0.52146,0 1.12961,0.37991 1.35887,0.84829 0.27368,0.55914 0.62745,1.28041 0.8824,1.79496 0.12196,4.8e-4 0.2439,10e-4 0.36587,0.002 0.19646,-3.2e-4 0.32392,-0.20716 0.23616,-0.38293 l -1.29501,-2.6448 v -0.14624 z" />
      <path
         id="path56095"
         style="color:#000000;fill:#1d5c87;fill-opacity:1;stroke-width:0.794878;stroke-linecap:round;stroke-linejoin:round;stroke-miterlimit:1.5;-inkscape-stroke:none"
         d="m 104.143,256.95491 c 0.56341,0 1.05833,-0.46185 1.05833,-1.02526 v -1.3379 l -2.05103,-2e-5 v 0.52917 h 0.52382 c 0.25895,0 0.46888,0.20993 0.46888,0.46888 z"
         sodipodi:nodetypes="cscccscc" />
      <path
         style="color:#000000;fill:#ececec;stroke-width:0.794878;stroke-linecap:round;stroke-linejoin:round;stroke-miterlimit:1.5;-inkscape-stroke:none"
         d="m 104.67188,254.5918 v 1.33789 c 0,0.56341 0.46197,1.02539 1.02539,1.02539 0.56342,0 1.02656,-0.46198 1.02539,-1.02539 l -0.002,-1.07422 c -0.0257,-0.14212 -0.11946,-0.26423 -0.26563,-0.26367 z"
         id="path908424"
         sodipodi:nodetypes="csssccc" />
      <path
         id="path2637"
         style="color:#000000;clip-rule:evenodd;fill:#ff430a;fill-opacity:1;fill-rule:evenodd;stroke-width:0.794878;stroke-linecap:round;stroke-linejoin:round;stroke-miterlimit:1.5;-inkscape-stroke:none"
         d="m 103.41385,261.73445 c -0.13955,2.2e-4 -0.25455,0.10878 -0.26355,0.24805 l -0.0186,0.28112 h 3.19257 c 0.13955,2.2e-4 0.25482,0.10877 0.26355,0.24804 l 0.24753,3.72071 h 0.28163 c 0.15253,-2.4e-4 0.27407,-0.1289 0.26407,-0.28112 l -0.26407,-3.96875 c -0.009,-0.13927 -0.124,-0.24783 -0.26355,-0.24805 z" />
      <path
         id="path53133"
         style="color:#000000;fill:#cccccc;fill-opacity:1;stroke-width:0.794878;stroke-linecap:round;stroke-linejoin:round;stroke-miterlimit:1.5;-inkscape-stroke:none"
         d="m 104.67165,254.59173 v 0.52917 h 1.25419 c 0.14617,-5.6e-4 0.23991,0.12142 0.26561,0.26355 l 0.002,1.07435 c 2.7e-4,0.14546 -0.0304,0.28406 -0.0858,0.40979 0.36127,-0.15925 0.61582,-0.52121 0.61495,-0.93896 l -0.002,-1.07435 c -0.0257,-0.14212 -0.11945,-0.26411 -0.26562,-0.26355 z" />
    </g>
  </g>
</svg>
